<svg xmlns="http://www.w3.org/2000/svg" viewBox="0 0 436.88 81.89"><g id="Layer_28" data-name="Layer 28"><path d="M709,377.12H704.9V355.68l-.29-.18L678,379.86,651.14,355.3v21.8h-4.2V345l31,28.3,31-28.43Z" transform="translate(-489.2 -335.75)"/></g><g id="Layer_27" data-name="Layer 27"><path d="M900.65,378.51c-5.15-.2-10.32-.27-15.46-.66a20,20,0,0,1-6-1.6,6.14,6.14,0,0,1-3.94-6.21c0-4,0-8,0-12,0-3.8,1.42-5.82,5-7.15a27.39,27.39,0,0,1,9.45-1.46c7.54,0,15.08-.14,22.61.07A33.72,33.72,0,0,1,921,351c3.73,1.12,5,3.33,5,7.21s0,7.83,0,11.75c0,3.24-1.46,5.55-4.43,6.52a33.25,33.25,0,0,1-8.14,1.65c-4.27.27-8.57.07-12.85.07Zm0-4.83h0c4.62,0,9.25.05,13.87,0a11.18,11.18,0,0,0,6.16-1.75,3.93,3.93,0,0,0,1.9-3.56c-.05-3-.08-5.91,0-8.87a4.23,4.23,0,0,0-2.5-4.1,13.18,13.18,0,0,0-6.39-1.46c-9.2,0-18.4-.06-27.6,0a13.21,13.21,0,0,0-4.68,1.09,4.22,4.22,0,0,0-2.73,4.34c.07,2.92.07,5.83,0,8.75a3.89,3.89,0,0,0,2.49,4.07,17.83,17.83,0,0,0,5.5,1.4C891.35,373.82,896,373.68,900.68,373.68Z" transform="translate(-489.2 -335.75)"/></g><g id="Layer_26" data-name="Layer 26"><path d="M794.32,377.12H790v-1.47c0-6.25,0-12.5,0-18.75,0-1.15-.32-1.45-1.46-1.45q-35.8,0-71.62,0h-1.76V351H817.13v4.46H794.32Z" transform="translate(-489.2 -335.75)"/></g><g id="Layer_25" data-name="Layer 25"><path d="M825.26,368.27v8.8h-4.12V363.62h1.55q16.74,0,33.5,0a23.75,23.75,0,0,0,4.83-.47c2.53-.53,3.68-2.59,3.07-5.1a2.6,2.6,0,0,0-2.09-2.09,22.45,22.45,0,0,0-4.08-.45q-17.56,0-35.12,0h-1.69V351a4.85,4.85,0,0,1,.72-.11l37.62,0c.63,0,1.25.05,1.87.1,6.44.56,7.74,5.5,7.14,9.89-.47,3.46-2.51,5.61-6,6.6l9.24,9.66c-2.25,0-4.19,0-6.12,0-.34,0-.71-.37-1-.65-2.41-2.53-4.79-5.1-7.22-7.61a2.12,2.12,0,0,0-1.36-.66q-15.06,0-30.12,0A4.93,4.93,0,0,0,825.26,368.27Z" transform="translate(-489.2 -335.75)"/></g><g id="Layer_24" data-name="Layer 24"><path d="M837.71,389.23v3.37H820.83v16h-3.17V392.71c-.39,0-.63-.07-.87-.07-12.16,0-24.33,0-36.49.06a24.9,24.9,0,0,0-9.65,1.75,10,10,0,0,0-2.76,1.66,4.54,4.54,0,0,0,.29,7.24c2.21,1.71,4.86,2,7.47,2,7.87.18,15.74.2,23.61.29h1.53v2.89c-.31,0-.59.08-.87.08-8,0-16.08,0-24.12,0a27.29,27.29,0,0,1-5.34-.5,8.76,8.76,0,0,1-7.07-6,7.7,7.7,0,0,1,1.79-8.11,13.4,13.4,0,0,1,7.74-3.78,58.13,58.13,0,0,1,9.29-1c18.16-.09,36.33,0,54.49,0C837,389.19,837.28,389.21,837.71,389.23Z" transform="translate(-489.2 -335.75)"/></g><g id="Layer_23" data-name="Layer 23"><path d="M504.67,373c.16,1.9-.19,2.31-1.75,2.66q-5.64,1.24-11.27,2.57c-1.77.42-2.36,0-2.43-1.83a32.27,32.27,0,0,1,1.88-11.58,38,38,0,0,1,14.67-19.15A34.15,34.15,0,0,1,521,339.62a40.31,40.31,0,0,1,8.88-.44,39.64,39.64,0,0,1,14.48,3.73A38.79,38.79,0,0,1,557.85,354a36.26,36.26,0,0,1,6.07,11.3,32,32,0,0,1,1.82,11.6c-.06,1-.52,1.59-1.55,1.41-2.08-.35-4.16-.75-6.22-1.19s-4.19-1-6.28-1.47c-.88-.2-1.58-.5-1.53-1.6s.63-1.5,1.61-1.26c2.82.69,5.62,1.41,8.45,2,2.53.55,2.87.16,2.51-2.36a35.52,35.52,0,0,0-20.85-27.62,34.24,34.24,0,0,0-14.34-3.18,46.44,46.44,0,0,0-9.69,1.46,31,31,0,0,0-11,5.25A35.92,35.92,0,0,0,495.31,362,35.26,35.26,0,0,0,492,373c-.23,1.7.18,2.23,1.83,1.92,2.12-.4,4.2-1,6.32-1.37C501.62,373.27,503.1,373.2,504.67,373Z" transform="translate(-489.2 -335.75)"/></g><g id="Layer_22" data-name="Layer 22"><path d="M871.34,401.56l6.75,7.09c-1.67,0-3.09,0-4.51,0-.3,0-.62-.38-.87-.64-1.63-1.72-3.22-3.48-4.89-5.16a2.51,2.51,0,0,0-1.58-.76c-7.16-.05-14.32,0-21.48,0-.29,0-.57.06-1,.1v6.44h-3.12v-9.92h1.51c8.2,0,16.41,0,24.61,0a15.35,15.35,0,0,0,3.58-.4,2.68,2.68,0,0,0,2.2-3.15c-.1-1.39-.88-2.13-2.59-2.35a16.72,16.72,0,0,0-2.24-.09H840.68v-3.45H842q12.93,0,25.86,0a25.35,25.35,0,0,1,3.48.26,4.94,4.94,0,0,1,4.3,4.09C876.44,397.39,875.14,399.88,871.34,401.56Z" transform="translate(-489.2 -335.75)"/></g><g id="Layer_21" data-name="Layer 21"><path d="M924.51,405.19v2.87a7,7,0,0,1-.87.1c-8,0-16.07,0-24.11,0a31.24,31.24,0,0,1-5.46-.5,8.67,8.67,0,0,1-7.21-10.35c.75-3.51,3.33-5.35,6.43-6.57a33.47,33.47,0,0,1,12-2c6.08-.08,12.16,0,18.24,0,.24,0,.49,0,.81.05v3.4h-1.53c-6.2,0-12.41-.05-18.61.05a25.87,25.87,0,0,0-10.48,2,5.83,5.83,0,0,0-3.65,3.68,4.74,4.74,0,0,0,3.18,5.78,19.93,19.93,0,0,0,6.19,1.24c7.82.21,15.65.22,23.48.3Z" transform="translate(-489.2 -335.75)"/></g><g id="Layer_20" data-name="Layer 20"><path d="M764,366.09H715.2v-4.51c.49,0,.94-.06,1.38-.06q23,0,46,0c1.2,0,1.52.37,1.43,1.48S764,365,764,366.09Z" transform="translate(-489.2 -335.75)"/></g><g id="Layer_19" data-name="Layer 19"><path d="M715.2,377.07v-4.49c.51,0,1-.06,1.4-.06q22.93,0,45.87,0c1.18,0,1.66.27,1.53,1.51-.1,1,0,2,0,3.07Z" transform="translate(-489.2 -335.75)"/></g><g id="Layer_18" data-name="Layer 18"><path d="M521.71,415a19.07,19.07,0,0,1-10.59-1.71,40.94,40.94,0,0,1-17.2-15.12c-2.6-4-4.51-8.21-4.67-13.05-.07-2,.51-2.49,2.5-2a56.15,56.15,0,0,1,12.91,5.12,25.5,25.5,0,0,1,9.79,8.58,43,43,0,0,1,3.37,6c1.32,3,2.43,6.06,3.52,9.14A14.65,14.65,0,0,1,521.71,415ZM493.25,386c-1.59.1-1.3,1.15-1.08,1.76a48.08,48.08,0,0,0,3,7.34,38.58,38.58,0,0,0,15.73,15.23,33.69,33.69,0,0,0,6.06,2.19c1.14.35,1.54-.13,1.41-1.32a4.51,4.51,0,0,0-.31-1.07c-.84-2.08-1.61-4.19-2.55-6.21a30.23,30.23,0,0,0-5.71-8.83A33.75,33.75,0,0,0,498.48,388C496.68,387.3,494.85,386.63,493.25,386Z" transform="translate(-489.2 -335.75)"/></g><g id="Layer_17" data-name="Layer 17"><path d="M535.91,415.08h-.13c-2.48,0-3.11-.85-2.31-3.25a62.08,62.08,0,0,1,6.39-14.23,24.27,24.27,0,0,1,9.66-8.93c3.93-1.94,8-3.5,12.09-5.17a7,7,0,0,1,2.21-.34c1.5-.06,1.94.56,1.8,2.07a29.07,29.07,0,0,1-5.7,14.25,41.1,41.1,0,0,1-15,13.14C542.26,414,539,415.26,535.91,415.08Zm27.16-27.66c-.2-1.2-.59-1.62-1.67-1.25-2.27.77-4.52,1.63-6.72,2.57a29.79,29.79,0,0,0-8.65,5.34c-5,4.61-7.42,10.78-9.66,17-.46,1.28.21,1.95,1.55,1.57a26.91,26.91,0,0,0,5.16-1.79,39.57,39.57,0,0,0,17.23-16.81A71.68,71.68,0,0,0,563.07,387.42Z" transform="translate(-489.2 -335.75)"/></g><g id="Layer_16" data-name="Layer 16"><path d="M720,405v3.63H686.5V389.27h3.1V405Z" transform="translate(-489.2 -335.75)"/></g><g id="Layer_15" data-name="Layer 15"><path d="M608,417.63h-1.8V335.75H608Z" transform="translate(-489.2 -335.75)"/></g><g id="Layer_14" data-name="Layer 14"><path d="M527.65,366c4.44.08,8.73.7,12.55,3a16.65,16.65,0,0,1,8.09,11.38,14,14,0,0,1,.1,3.24,1.39,1.39,0,0,1-.61,1.06,1,1,0,0,1-1.41-.83,18.18,18.18,0,0,1-.4-2.08,15.26,15.26,0,0,0-3.74-7.86,14.14,14.14,0,0,0-5.64-3.74,24.37,24.37,0,0,0-12.91-1.58,18.77,18.77,0,0,0-9.87,4.17,15.57,15.57,0,0,0-4.81,8.38c-.19.85-.35,1.71-.49,2.57a1.07,1.07,0,0,1-1.39,1,1.13,1.13,0,0,1-1-1.26,15,15,0,0,1,2.54-8.47,17.77,17.77,0,0,1,11.62-8.24A67.42,67.42,0,0,1,527.65,366Z" transform="translate(-489.2 -335.75)"/></g><g id="Layer_13" data-name="Layer 13"><path d="M682.1,389.28v3.28H646.18v-3.28Z" transform="translate(-489.2 -335.75)"/></g><g id="Layer_12" data-name="Layer 12"><path d="M722.83,392.54v-3.26h35.91v3.26Z" transform="translate(-489.2 -335.75)"/></g><g id="Layer_11" data-name="Layer 11"><path d="M646.15,408.59v-3.28h35.93v3.28Z" transform="translate(-489.2 -335.75)"/></g><g id="Layer_10" data-name="Layer 10"><path d="M758.78,405.32v3.27H722.87v-3.27Z" transform="translate(-489.2 -335.75)"/></g><g id="Layer_9" data-name="Layer 9"><path d="M682.07,400.41H646.16V397.2h35.91Z" transform="translate(-489.2 -335.75)"/></g><g id="Layer_8" data-name="Layer 8"><path d="M722.83,400.37v-3.14h35.91v3.14Z" transform="translate(-489.2 -335.75)"/></g><g id="Layer_7" data-name="Layer 7"><path d="M527.47,376.65c.46,0,.92,0,1.38,0,2.1-.16,3.53.79,4.84,2.41,2.29,2.83,1.88,5.94.81,8.86-1.3,3.58-5.8,5-9.47,3.91-2.48-.78-4.32-2.19-5-4.5-1.26-4-.67-8.08,3.56-10.29,1.09-.57,2.59-.37,3.91-.52Zm5.18,7.65a5.45,5.45,0,0,0-5.22-5.63c-2.42-.06-5.37,2.74-5.35,5.19,0,3.49,2.44,5.4,5.39,5.71C530,389.84,532.59,387,532.65,384.3Z" transform="translate(-489.2 -335.75)"/></g><g id="Layer_6" data-name="Layer 6"><path d="M884.06,389.25V408.6h-3V389.25Z" transform="translate(-489.2 -335.75)"/></g></svg>